<svg width="190" height="38" viewBox="0 0 190 38" fill="none" xmlns="http://www.w3.org/2000/svg">
<g id="Subtract" filter="url(#filter0_d_17_23)">
<path fill-rule="evenodd" clip-rule="evenodd" d="M19 0C10.7157 0 4 6.71573 4 15C4 23.2843 10.7157 30 19 30H171C179.284 30 186 23.2843 186 15C186 6.71573 179.284 0 171 0H19ZM34.4492 17.2227H30.3477C30.332 17.8633 30.207 18.3906 29.9727 18.8047C29.7383 19.2109 29.4062 19.5156 28.9766 19.7188C28.5469 19.9141 28.0195 20.0117 27.3945 20.0117C26.832 20.0117 26.3555 19.918 25.9648 19.7305C25.582 19.5352 25.2695 19.2344 25.0273 18.8281C24.7852 18.4219 24.6094 17.8984 24.5 17.2578C24.3906 16.6172 24.3359 15.8438 24.3359 14.9375V13.9883C24.3359 13.082 24.3945 12.3086 24.5117 11.668C24.6367 11.0195 24.8242 10.4922 25.0742 10.0859C25.3242 9.67969 25.6367 9.38281 26.0117 9.19531C26.3867 9.00781 26.8281 8.91406 27.3359 8.91406C28.0625 8.91406 28.6445 9.02344 29.082 9.24219C29.5195 9.46094 29.8398 9.78906 30.043 10.2266C30.2461 10.6562 30.3555 11.1914 30.3711 11.832H34.4727C34.3711 10.6523 34.0391 9.60156 33.4766 8.67969C32.9141 7.75 32.1211 7.01953 31.0977 6.48828C30.0742 5.95703 28.8203 5.69141 27.3359 5.69141C26.2578 5.69141 25.2773 5.88281 24.3945 6.26562C23.5117 6.64844 22.7539 7.20312 22.1211 7.92969C21.4961 8.64844 21.0117 9.52344 20.668 10.5547C20.332 11.5781 20.1641 12.7305 20.1641 14.0117V14.9375C20.1641 16.2188 20.3242 17.3711 20.6445 18.3945C20.9727 19.418 21.4453 20.2891 22.0625 21.0078C22.6875 21.7266 23.4453 22.2773 24.3359 22.6602C25.2344 23.043 26.2539 23.2344 27.3945 23.2344C28.8008 23.2344 30.0195 22.9844 31.0508 22.4844C32.0898 21.9766 32.9023 21.2695 33.4883 20.3633C34.0742 19.457 34.3945 18.4102 34.4492 17.2227ZM44.1172 5.9375H45.1953L51.5 23H47.0703L46.0836 19.8125H40.4488L39.4648 23H35.0469L41.3164 5.9375H42.3594H44.1172ZM41.4292 16.6367H45.1005L43.2622 10.6986L41.4292 16.6367ZM64.0273 23V19.8359H56.8672V5.9375H52.7539V23H55.4023H56.8672H64.0273ZM78.8164 17.2227H74.7148C74.6992 17.8633 74.5742 18.3906 74.3398 18.8047C74.1055 19.2109 73.7734 19.5156 73.3438 19.7188C72.9141 19.9141 72.3867 20.0117 71.7617 20.0117C71.1992 20.0117 70.7227 19.918 70.332 19.7305C69.9492 19.5352 69.6367 19.2344 69.3945 18.8281C69.1523 18.4219 68.9766 17.8984 68.8672 17.2578C68.7578 16.6172 68.7031 15.8438 68.7031 14.9375V13.9883C68.7031 13.082 68.7617 12.3086 68.8789 11.668C69.0039 11.0195 69.1914 10.4922 69.4414 10.0859C69.6914 9.67969 70.0039 9.38281 70.3789 9.19531C70.7539 9.00781 71.1953 8.91406 71.7031 8.91406C72.4297 8.91406 73.0117 9.02344 73.4492 9.24219C73.8867 9.46094 74.207 9.78906 74.4102 10.2266C74.6133 10.6562 74.7227 11.1914 74.7383 11.832H78.8398C78.7383 10.6523 78.4062 9.60156 77.8438 8.67969C77.2812 7.75 76.4883 7.01953 75.4648 6.48828C74.4414 5.95703 73.1875 5.69141 71.7031 5.69141C70.625 5.69141 69.6445 5.88281 68.7617 6.26562C67.8789 6.64844 67.1211 7.20312 66.4883 7.92969C65.8633 8.64844 65.3789 9.52344 65.0352 10.5547C64.6992 11.5781 64.5312 12.7305 64.5312 14.0117V14.9375C64.5312 16.2188 64.6914 17.3711 65.0117 18.3945C65.3398 19.418 65.8125 20.2891 66.4297 21.0078C67.0547 21.7266 67.8125 22.2773 68.7031 22.6602C69.6016 23.043 70.6211 23.2344 71.7617 23.2344C73.168 23.2344 74.3867 22.9844 75.418 22.4844C76.457 21.9766 77.2695 21.2695 77.8555 20.3633C78.4414 19.457 78.7617 18.4102 78.8164 17.2227ZM94.1328 5.9375H90.0195V17.082C90.0195 17.7852 89.9219 18.3594 89.7266 18.8047C89.5312 19.2422 89.2422 19.5625 88.8594 19.7656C88.4766 19.9688 88.0039 20.0703 87.4414 20.0703C86.8867 20.0703 86.4141 19.9688 86.0234 19.7656C85.6328 19.5625 85.3359 19.2422 85.1328 18.8047C84.9297 18.3594 84.8281 17.7852 84.8281 17.082V5.9375H80.7031V17.082C80.7031 18.4102 80.9844 19.5352 81.5469 20.457C82.1172 21.3711 82.9062 22.0625 83.9141 22.5312C84.9297 23 86.1055 23.2344 87.4414 23.2344C88.793 23.2344 89.9688 23 90.9688 22.5312C91.9688 22.0625 92.7461 21.3711 93.3008 20.457C93.8555 19.5352 94.1328 18.4102 94.1328 17.082V5.9375ZM107.996 23V19.8359H100.836V5.9375H96.7227V23H99.3711H100.836H107.996ZM117.688 5.9375H118.766L125.07 23H120.641L119.654 19.8125H114.019L113.035 23H108.617L114.887 5.9375H115.93H117.688ZM114.999 16.6367H118.671L116.833 10.6986L114.999 16.6367ZM133.18 23V9.11328H138.312V5.9375H133.18H129.066H124.051V9.11328H129.066V23H133.18ZM154.168 14.8203V14.1289C154.168 12.8242 153.984 11.6523 153.617 10.6133C153.25 9.57422 152.734 8.69141 152.07 7.96484C151.406 7.23047 150.617 6.67188 149.703 6.28906C148.797 5.89844 147.797 5.70312 146.703 5.70312C145.602 5.70312 144.594 5.89844 143.68 6.28906C142.773 6.67188 141.988 7.23047 141.324 7.96484C140.668 8.69141 140.156 9.57422 139.789 10.6133C139.43 11.6523 139.25 12.8242 139.25 14.1289V14.8203C139.25 16.125 139.43 17.2969 139.789 18.3359C140.156 19.3672 140.672 20.25 141.336 20.9844C142.008 21.7109 142.797 22.2695 143.703 22.6602C144.617 23.043 145.625 23.2344 146.727 23.2344C147.82 23.2344 148.82 23.043 149.727 22.6602C150.633 22.2695 151.418 21.7109 152.082 20.9844C152.746 20.25 153.258 19.3672 153.617 18.3359C153.984 17.2969 154.168 16.125 154.168 14.8203ZM149.996 14.1055V14.8203C149.996 15.6562 149.922 16.3984 149.773 17.0469C149.633 17.6875 149.422 18.2305 149.141 18.6758C148.867 19.1211 148.527 19.457 148.121 19.6836C147.715 19.9102 147.25 20.0234 146.727 20.0234C146.18 20.0234 145.699 19.9102 145.285 19.6836C144.879 19.457 144.535 19.1211 144.254 18.6758C143.98 18.2305 143.773 17.6875 143.633 17.0469C143.5 16.3984 143.434 15.6562 143.434 14.8203V14.1055C143.434 13.2617 143.5 12.5195 143.633 11.8789C143.773 11.2305 143.98 10.6875 144.254 10.25C144.527 9.8125 144.867 9.48438 145.273 9.26562C145.68 9.03906 146.156 8.92578 146.703 8.92578C147.227 8.92578 147.691 9.03906 148.098 9.26562C148.512 9.48438 148.859 9.8125 149.141 10.25C149.422 10.6875 149.633 11.2305 149.773 11.8789C149.922 12.5195 149.996 13.2617 149.996 14.1055ZM163.016 5.9375H156.301V23H160.414V16.9766H162.629L165.641 23H170.047V22.8242L166.491 15.9408C166.95 15.72 167.365 15.4637 167.738 15.1719C168.285 14.7422 168.711 14.1992 169.016 13.543C169.32 12.8867 169.473 12.0703 169.473 11.0938C169.473 9.96875 169.207 9.02344 168.676 8.25781C168.152 7.49219 167.406 6.91406 166.438 6.52344C165.469 6.13281 164.328 5.9375 163.016 5.9375ZM160.414 13.8008H163.016C163.539 13.8008 163.973 13.707 164.316 13.5195C164.66 13.332 164.918 13.0664 165.09 12.7227C165.27 12.3711 165.359 11.9531 165.359 11.4688C165.359 10.9766 165.27 10.5547 165.09 10.2031C164.91 9.85156 164.645 9.58203 164.293 9.39453C163.949 9.20703 163.523 9.11328 163.016 9.11328H160.414V13.8008Z" fill="white"/>
</g>
<defs>
<filter id="filter0_d_17_23" x="0" y="0" width="190" height="38" filterUnits="userSpaceOnUse" color-interpolation-filters="sRGB">
<feFlood flood-opacity="0" result="BackgroundImageFix"/>
<feColorMatrix in="SourceAlpha" type="matrix" values="0 0 0 0 0 0 0 0 0 0 0 0 0 0 0 0 0 0 127 0" result="hardAlpha"/>
<feOffset dy="4"/>
<feGaussianBlur stdDeviation="2"/>
<feComposite in2="hardAlpha" operator="out"/>
<feColorMatrix type="matrix" values="0 0 0 0 0 0 0 0 0 0 0 0 0 0 0 0 0 0 0.25 0"/>
<feBlend mode="normal" in2="BackgroundImageFix" result="effect1_dropShadow_17_23"/>
<feBlend mode="normal" in="SourceGraphic" in2="effect1_dropShadow_17_23" result="shape"/>
</filter>
</defs>
</svg>
