<svg width="153" height="38" viewBox="0 0 153 38" fill="none" xmlns="http://www.w3.org/2000/svg">
<g id="Subtract" filter="url(#filter0_d_17_25)">
<path fill-rule="evenodd" clip-rule="evenodd" d="M19 0C10.7157 0 4 6.71573 4 15C4 23.2843 10.7157 30 19 30H134C142.284 30 149 23.2843 149 15C149 6.71573 142.284 0 134 0H19ZM34.2656 17.2227H30.1641C30.1484 17.8633 30.0234 18.3906 29.7891 18.8047C29.5547 19.2109 29.2227 19.5156 28.793 19.7188C28.3633 19.9141 27.8359 20.0117 27.2109 20.0117C26.6484 20.0117 26.1719 19.918 25.7812 19.7305C25.3984 19.5352 25.0859 19.2344 24.8438 18.8281C24.6016 18.4219 24.4258 17.8984 24.3164 17.2578C24.207 16.6172 24.1523 15.8438 24.1523 14.9375V13.9883C24.1523 13.082 24.2109 12.3086 24.3281 11.668C24.4531 11.0195 24.6406 10.4922 24.8906 10.0859C25.1406 9.67969 25.4531 9.38281 25.8281 9.19531C26.2031 9.00781 26.6445 8.91406 27.1523 8.91406C27.8789 8.91406 28.4609 9.02344 28.8984 9.24219C29.3359 9.46094 29.6562 9.78906 29.8594 10.2266C30.0625 10.6562 30.1719 11.1914 30.1875 11.832H34.2891C34.1875 10.6523 33.8555 9.60156 33.293 8.67969C32.7305 7.75 31.9375 7.01953 30.9141 6.48828C29.8906 5.95703 28.6367 5.69141 27.1523 5.69141C26.0742 5.69141 25.0938 5.88281 24.2109 6.26562C23.3281 6.64844 22.5703 7.20312 21.9375 7.92969C21.3125 8.64844 20.8281 9.52344 20.4844 10.5547C20.1484 11.5781 19.9805 12.7305 19.9805 14.0117V14.9375C19.9805 16.2188 20.1406 17.3711 20.4609 18.3945C20.7891 19.418 21.2617 20.2891 21.8789 21.0078C22.5039 21.7266 23.2617 22.2773 24.1523 22.6602C25.0508 23.043 26.0703 23.2344 27.2109 23.2344C28.6172 23.2344 29.8359 22.9844 30.8672 22.4844C31.9062 21.9766 32.7188 21.2695 33.3047 20.3633C33.8906 19.457 34.2109 18.4102 34.2656 17.2227ZM50.6484 14.8203V14.1289C50.6484 12.8242 50.4648 11.6523 50.0977 10.6133C49.7305 9.57422 49.2148 8.69141 48.5508 7.96484C47.8867 7.23047 47.0977 6.67188 46.1836 6.28906C45.2773 5.89844 44.2773 5.70312 43.1836 5.70312C42.082 5.70312 41.0742 5.89844 40.1602 6.28906C39.2539 6.67188 38.4688 7.23047 37.8047 7.96484C37.1484 8.69141 36.6367 9.57422 36.2695 10.6133C35.9102 11.6523 35.7305 12.8242 35.7305 14.1289V14.8203C35.7305 16.125 35.9102 17.2969 36.2695 18.3359C36.6367 19.3672 37.1523 20.25 37.8164 20.9844C38.4883 21.7109 39.2773 22.2695 40.1836 22.6602C41.0977 23.043 42.1055 23.2344 43.207 23.2344C44.3008 23.2344 45.3008 23.043 46.207 22.6602C47.1133 22.2695 47.8984 21.7109 48.5625 20.9844C49.2266 20.25 49.7383 19.3672 50.0977 18.3359C50.4648 17.2969 50.6484 16.125 50.6484 14.8203ZM46.4766 14.1055V14.8203C46.4766 15.6562 46.4023 16.3984 46.2539 17.0469C46.1133 17.6875 45.9023 18.2305 45.6211 18.6758C45.3477 19.1211 45.0078 19.457 44.6016 19.6836C44.1953 19.9102 43.7305 20.0234 43.207 20.0234C42.6602 20.0234 42.1797 19.9102 41.7656 19.6836C41.3594 19.457 41.0156 19.1211 40.7344 18.6758C40.4609 18.2305 40.2539 17.6875 40.1133 17.0469C39.9805 16.3984 39.9141 15.6562 39.9141 14.8203V14.1055C39.9141 13.2617 39.9805 12.5195 40.1133 11.8789C40.2539 11.2305 40.4609 10.6875 40.7344 10.25C41.0078 9.8125 41.3477 9.48438 41.7539 9.26562C42.1602 9.03906 42.6367 8.92578 43.1836 8.92578C43.707 8.92578 44.1719 9.03906 44.5781 9.26562C44.9922 9.48438 45.3398 9.8125 45.6211 10.25C45.9023 10.6875 46.1133 11.2305 46.2539 11.8789C46.4023 12.5195 46.4766 13.2617 46.4766 14.1055ZM67.2188 14.8203V14.1289C67.2188 12.8242 67.0352 11.6523 66.668 10.6133C66.3008 9.57422 65.7852 8.69141 65.1211 7.96484C64.457 7.23047 63.668 6.67188 62.7539 6.28906C61.8477 5.89844 60.8477 5.70312 59.7539 5.70312C58.6523 5.70312 57.6445 5.89844 56.7305 6.28906C55.8242 6.67188 55.0391 7.23047 54.375 7.96484C53.7188 8.69141 53.207 9.57422 52.8398 10.6133C52.4805 11.6523 52.3008 12.8242 52.3008 14.1289V14.8203C52.3008 16.125 52.4805 17.2969 52.8398 18.3359C53.207 19.3672 53.7227 20.25 54.3867 20.9844C55.0586 21.7109 55.8477 22.2695 56.7539 22.6602C57.668 23.043 58.6758 23.2344 59.7773 23.2344C60.8711 23.2344 61.8711 23.043 62.7773 22.6602C63.6836 22.2695 64.4688 21.7109 65.1328 20.9844C65.7969 20.25 66.3086 19.3672 66.668 18.3359C67.0352 17.2969 67.2188 16.125 67.2188 14.8203ZM63.0469 14.1055V14.8203C63.0469 15.6562 62.9727 16.3984 62.8242 17.0469C62.6836 17.6875 62.4727 18.2305 62.1914 18.6758C61.918 19.1211 61.5781 19.457 61.1719 19.6836C60.7656 19.9102 60.3008 20.0234 59.7773 20.0234C59.2305 20.0234 58.75 19.9102 58.3359 19.6836C57.9297 19.457 57.5859 19.1211 57.3047 18.6758C57.0312 18.2305 56.8242 17.6875 56.6836 17.0469C56.5508 16.3984 56.4844 15.6562 56.4844 14.8203V14.1055C56.4844 13.2617 56.5508 12.5195 56.6836 11.8789C56.8242 11.2305 57.0312 10.6875 57.3047 10.25C57.5781 9.8125 57.918 9.48438 58.3242 9.26562C58.7305 9.03906 59.207 8.92578 59.7539 8.92578C60.2773 8.92578 60.7422 9.03906 61.1484 9.26562C61.5625 9.48438 61.9102 9.8125 62.1914 10.25C62.4727 10.6875 62.6836 11.2305 62.8242 11.8789C62.9727 12.5195 63.0469 13.2617 63.0469 14.1055ZM73.4648 13.4612V5.9375H69.3516V23H73.4648V18.4959L75.1481 16.6545L78.7852 23H83.6484L77.8898 13.4727L83.6484 5.9375H78.5742L74.8945 11.293L73.4648 13.4612ZM95.9766 23V19.8359H88.8164V5.9375H84.7031V23H87.3516H88.8164H95.9766ZM102.082 23V5.9375H97.9805V23H102.082ZM113.648 17.75C113.727 17.9609 113.766 18.1992 113.766 18.4648C113.766 18.7695 113.691 19.0508 113.543 19.3086C113.395 19.5586 113.16 19.7617 112.84 19.918C112.52 20.0664 112.098 20.1406 111.574 20.1406C111.09 20.1406 110.66 20.0977 110.285 20.0117C109.91 19.918 109.594 19.7695 109.336 19.5664C109.078 19.3555 108.883 19.0781 108.75 18.7344C108.617 18.3906 108.551 17.9688 108.551 17.4688H104.426C104.426 18.4766 104.629 19.3477 105.035 20.082C105.449 20.8086 106 21.4062 106.688 21.875C107.375 22.3359 108.141 22.6797 108.984 22.9062C109.836 23.125 110.699 23.2344 111.574 23.2344C112.527 23.2344 113.391 23.1289 114.164 22.918C114.938 22.707 115.602 22.3984 116.156 21.9922C116.711 21.5781 117.137 21.0742 117.434 20.4805C117.73 19.8867 117.879 19.207 117.879 18.4414C117.879 17.7227 117.75 17.0781 117.492 16.5078C117.242 15.9375 116.871 15.4297 116.379 14.9844C115.895 14.5312 115.297 14.1289 114.586 13.7773C113.883 13.418 113.078 13.0938 112.172 12.8047C111.688 12.6484 111.25 12.4883 110.859 12.3242C110.477 12.1602 110.148 11.9883 109.875 11.8086C109.609 11.6289 109.402 11.4375 109.254 11.2344C109.113 11.0234 109.043 10.7891 109.043 10.5312C109.043 10.2188 109.133 9.93359 109.312 9.67578C109.492 9.41016 109.758 9.19922 110.109 9.04297C110.461 8.88672 110.895 8.80859 111.41 8.80859C111.941 8.80859 112.383 8.90234 112.734 9.08984C113.086 9.27734 113.348 9.53516 113.52 9.86328C113.699 10.1914 113.789 10.5703 113.789 11H117.879C117.879 9.92188 117.605 8.98828 117.059 8.19922C116.52 7.40234 115.77 6.78906 114.809 6.35938C113.855 5.92188 112.754 5.70312 111.504 5.70312C110.559 5.70312 109.688 5.81641 108.891 6.04297C108.094 6.26172 107.398 6.58203 106.805 7.00391C106.219 7.41797 105.762 7.92188 105.434 8.51562C105.105 9.10156 104.941 9.76172 104.941 10.4961C104.941 11.2617 105.102 11.9336 105.422 12.5117C105.742 13.082 106.176 13.582 106.723 14.0117C107.27 14.4336 107.891 14.8047 108.586 15.125C109.281 15.4375 110.004 15.7188 110.754 15.9688C111.395 16.1797 111.91 16.3828 112.301 16.5781C112.699 16.7656 113.004 16.9531 113.215 17.1406C113.426 17.3281 113.57 17.5312 113.648 17.75ZM128.262 23V9.11328H133.395V5.9375H128.262H124.148H119.133V9.11328H124.148V23H128.262Z" fill="white"/>
</g>
<defs>
<filter id="filter0_d_17_25" x="0" y="0" width="153" height="38" filterUnits="userSpaceOnUse" color-interpolation-filters="sRGB">
<feFlood flood-opacity="0" result="BackgroundImageFix"/>
<feColorMatrix in="SourceAlpha" type="matrix" values="0 0 0 0 0 0 0 0 0 0 0 0 0 0 0 0 0 0 127 0" result="hardAlpha"/>
<feOffset dy="4"/>
<feGaussianBlur stdDeviation="2"/>
<feComposite in2="hardAlpha" operator="out"/>
<feColorMatrix type="matrix" values="0 0 0 0 0 0 0 0 0 0 0 0 0 0 0 0 0 0 0.25 0"/>
<feBlend mode="normal" in2="BackgroundImageFix" result="effect1_dropShadow_17_25"/>
<feBlend mode="normal" in="SourceGraphic" in2="effect1_dropShadow_17_25" result="shape"/>
</filter>
</defs>
</svg>
