<svg width="160" height="38" viewBox="0 0 160 38" fill="none" xmlns="http://www.w3.org/2000/svg">
<g id="Subtract" filter="url(#filter0_d_17_22)">
<path fill-rule="evenodd" clip-rule="evenodd" d="M19 0C10.7157 0 4 6.71573 4 15C4 23.2843 10.7157 30 19 30H141C149.284 30 156 23.2843 156 15C156 6.71573 149.284 0 141 0H19ZM26.1055 5.9375H24.1836H22.7539H20.7148V23H24.8281V19.0156L24.426 10.8558L28.5547 23H31.2734L35.4021 10.8558L35 19.0156V23H39.125V5.9375H37.0742H35.6445H33.7227L29.9141 17.8086L26.1055 5.9375ZM49.6953 5.9375H50.7734L57.0781 23H52.6484L51.6617 19.8125H46.0269L45.043 23H40.625L46.8945 5.9375H47.9375H49.6953ZM47.0073 16.6367H50.6786L48.8404 10.6986L47.0073 16.6367ZM62.7031 23V5.9375H58.6016V23H62.7031ZM79.8477 23V5.9375H75.7461V16.5547L69.7109 5.9375H65.5977V23H69.7109V12.3828L75.7461 23H79.8477ZM86.5625 17.2109H89.2578C90.625 17.2109 91.8008 16.9844 92.7852 16.5312C93.7773 16.0703 94.5391 15.4297 95.0703 14.6094C95.6016 13.7891 95.8672 12.8281 95.8672 11.7266C95.8672 10.6094 95.6016 9.61719 95.0703 8.75C94.5391 7.875 93.7773 7.1875 92.7852 6.6875C91.8008 6.1875 90.625 5.9375 89.2578 5.9375H82.4492V23H86.5625V17.2109ZM86.5625 14.0352V9.11328H89.2578C89.8359 9.11328 90.3047 9.23828 90.6641 9.48828C91.0234 9.73047 91.2852 10.0508 91.4492 10.4492C91.6211 10.8477 91.707 11.2812 91.707 11.75C91.707 12.1875 91.6211 12.582 91.4492 12.9336C91.2852 13.2773 91.0234 13.5469 90.6641 13.7422C90.3047 13.9375 89.8359 14.0352 89.2578 14.0352H86.5625ZM103.719 5.9375H104.797L111.102 23H106.672L105.685 19.8125H100.05L99.0664 23H94.6484L100.918 5.9375H101.961H103.719ZM101.031 16.6367H104.702L102.864 10.6986L101.031 16.6367ZM126.055 20.8906V13.8828H119.082V16.707H121.941V19.3555C121.832 19.457 121.672 19.5664 121.461 19.6836C121.258 19.793 121 19.8867 120.688 19.9648C120.375 20.0352 120 20.0703 119.562 20.0703C118.938 20.0703 118.395 19.9648 117.934 19.7539C117.48 19.5352 117.105 19.2148 116.809 18.793C116.52 18.3633 116.301 17.8281 116.152 17.1875C116.012 16.5469 115.941 15.8008 115.941 14.9492V13.9766C115.941 13.1172 116.016 12.3672 116.164 11.7266C116.32 11.0859 116.539 10.5547 116.82 10.1328C117.102 9.70312 117.441 9.38281 117.84 9.17188C118.246 8.96094 118.695 8.85547 119.188 8.85547C119.82 8.85547 120.336 8.96094 120.734 9.17188C121.133 9.375 121.438 9.67578 121.648 10.0742C121.867 10.4648 122.016 10.9414 122.094 11.5039H126.043C125.934 10.3633 125.625 9.35938 125.117 8.49219C124.609 7.61719 123.863 6.93359 122.879 6.44141C121.895 5.94141 120.617 5.69141 119.047 5.69141C117.984 5.69141 117.008 5.875 116.117 6.24219C115.234 6.60938 114.465 7.14844 113.809 7.85938C113.16 8.5625 112.656 9.42969 112.297 10.4609C111.938 11.4922 111.758 12.6719 111.758 14V14.9492C111.758 16.2773 111.934 17.457 112.285 18.4883C112.645 19.5117 113.152 20.3789 113.809 21.0898C114.473 21.793 115.266 22.3281 116.188 22.6953C117.109 23.0547 118.137 23.2344 119.27 23.2344C120.496 23.2344 121.562 23.1055 122.469 22.8477C123.375 22.5898 124.125 22.2812 124.719 21.9219C125.32 21.5547 125.766 21.2109 126.055 20.8906ZM140.199 23V19.8359H132.57V15.7695H139.027V12.7109H132.57V9.11328H140.234V5.9375H132.57H131.105H128.457V23H131.105H132.57H140.199Z" fill="white"/>
</g>
<defs>
<filter id="filter0_d_17_22" x="0" y="0" width="160" height="38" filterUnits="userSpaceOnUse" color-interpolation-filters="sRGB">
<feFlood flood-opacity="0" result="BackgroundImageFix"/>
<feColorMatrix in="SourceAlpha" type="matrix" values="0 0 0 0 0 0 0 0 0 0 0 0 0 0 0 0 0 0 127 0" result="hardAlpha"/>
<feOffset dy="4"/>
<feGaussianBlur stdDeviation="2"/>
<feComposite in2="hardAlpha" operator="out"/>
<feColorMatrix type="matrix" values="0 0 0 0 0 0 0 0 0 0 0 0 0 0 0 0 0 0 0.25 0"/>
<feBlend mode="normal" in2="BackgroundImageFix" result="effect1_dropShadow_17_22"/>
<feBlend mode="normal" in="SourceGraphic" in2="effect1_dropShadow_17_22" result="shape"/>
</filter>
</defs>
</svg>
